<svg width="40" height="40" viewBox="0 0 40 40" fill="none" xmlns="http://www.w3.org/2000/svg">
<path opacity="0.4" d="M36.233 15.7333H3.33301V10.6999C3.33301 6.63325 6.63301 3.33325 10.6997 3.33325H14.583C17.2997 3.33325 18.1497 4.21659 19.233 5.66659L21.5663 8.76659C22.083 9.44992 22.1497 9.54992 23.1163 9.54992H27.7663C31.7163 9.53325 35.083 12.1333 36.233 15.7333Z" fill="#5D37F3"/>
<path d="M36.6497 18.0667C36.6163 17.2501 36.483 16.4834 36.233 15.7334H3.33301V27.7501C3.33301 32.6667 7.33301 36.6667 12.2497 36.6667H27.7497C32.6663 36.6667 36.6663 32.6667 36.6663 27.7501V18.4501C36.6663 18.3334 36.6663 18.1834 36.6497 18.0667ZM24.1663 27.0834H21.3497V30.0001C21.3497 30.6834 20.783 31.2501 20.0997 31.2501C19.4163 31.2501 18.8497 30.6834 18.8497 30.0001V27.0834H15.833C15.1497 27.0834 14.583 26.5167 14.583 25.8334C14.583 25.1501 15.1497 24.5834 15.833 24.5834H18.8497V21.6667C18.8497 20.9834 19.4163 20.4167 20.0997 20.4167C20.783 20.4167 21.3497 20.9834 21.3497 21.6667V24.5834H24.1663C24.8497 24.5834 25.4163 25.1501 25.4163 25.8334C25.4163 26.5167 24.8497 27.0834 24.1663 27.0834Z" fill="#5D37F3"/>
</svg>
