<svg width="10" height="16" viewBox="0 0 10 16" fill="none" xmlns="http://www.w3.org/2000/svg">
<path d="M8 7C7.44772 7 7 7.44772 7 8C7 8.55228 7.44772 9 8 9L8 7ZM8.80711 8.70711C9.19763 8.31658 9.19763 7.68342 8.80711 7.29289L2.44314 0.928933C2.05262 0.538409 1.41946 0.538409 1.02893 0.928933C0.638407 1.31946 0.638407 1.95262 1.02893 2.34315L6.68579 8L1.02893 13.6569C0.638409 14.0474 0.638409 14.6805 1.02893 15.0711C1.41946 15.4616 2.05262 15.4616 2.44315 15.0711L8.80711 8.70711ZM8 9L8.1 9L8.1 7L8 7L8 9Z" fill="white"/>
</svg>
